<?xml version="1.0" encoding="UTF-8"?>
<svg id="Layer_1" data-name="Layer 1" xmlns="http://www.w3.org/2000/svg" version="1.1" viewBox="0 0 800 800">
  <defs>
    <style>
      .cls-1 {
        fill: #a6e18a;
        stroke-width: 0px;
      }
    </style>
  </defs>
  <path class="cls-1" d="M491.2,50l-6.3,3.1c-6.1,3-6.6,3.2-20.8,3.7l-14.7.5-6,3.3c-5.6,3-6.2,3.2-9.6,2.2-2.4-.7-4.7-1.7-6.8-3-2.5-1.3-5.3-2.2-8.2-2.6-2.7-.3-5.4-1-8-1.9-2.5-1.1-3.7-1-8.7.5-2.6.9-5.4,1.5-8.2,1.8-3.5.5-7,1.2-10.4,2.3-4.4,1.3-8.9,2.1-10.1,1.8-3-.7-9.9,2.5-12.1,5.7-4,6.9-11.4,18.1-8.3,26.2,4.6,6.2,21.4,1.5,21,11.9-2.9,12.3-7.6,24-11.8,35.8l-15.5-3.5c10.2-34.5,8.7-21.3-19.3-39.6.7-3.2,1.8-6.4,3.3-9.3,3.8-5.6,7.4-11.5,7.4-12.3.4-1.2,1-2.2,1.9-3.2,2.3-2.9,2.5-9.5.4-11.6-2.1-2.1-4.3-2.3-16-2.1-9.5.2-11,.4-15.5,2.7-2.9,1.5-9.1,6.4-14.5,11.5l-9.4,8.9.3,17.8.3,17.8,3.3,6.8c3.3,6.8,6.9,10.6,15.4,16.4,1.3.8,2.5,1.7,3.7,2.7.3.3,3.1,2.7,6.3,5.2,3.2,2.5,7.1,5.6,8.7,6.9,5.4,4.7,11.5,8.3,18.2,10.7,12.2,4.3,15.4,8.6,17.7,23.8,1.2,7.8,4.6,19.1,6.7,21.8.6.7,2.1,6.6,5.6,21.9.6,2.5,1.2,6,1.4,7.8.2,1.8.8,5,1.3,7.3,1.4,8.1,2.4,16.2,2.7,24.4,0,3.3-.4,4-3.1,5.7-1.4.9-2.9,1.6-4.5,1.9-2,0-5.7-7.5-7.5-15.2-2.7-12.1-6.6-17.2-13.7-18.3-5.9-.9-16.1-8.4-31.4-23-2-1.6-4.1-2.9-6.4-3.9-10.2-4.3-16.3-8.4-20.8-14.4-2.8-3.7-3.1-4.6-3.1-10.1.2-5.1.7-10.2,1.4-15.2,1.7-12,1.7-18.8-.1-25.3-2.3-8.2-8.5-11.6-12.9-6.8-3.9,4.3-11.3,24.6-14.5,39.9-1.4,6.9-3,10.8-6.1,14.7-1.3,1.4-1.7,3.4-1.2,5.3.7,3.6,6.4,16.3,8.2,18.4,1.3,1.8,2.5,3.7,3.6,5.6l2.3,4.1-1.9,6.3c-3,10.5-3.1,9.8.8,13.1,1.9,1.6,10.4,9.9,18.8,18.1,17.6,17.3,20.5,19,32.6,19.9,7.5.5,10.5,1.6,11.7,4.2.3.8.7,8.2.8,16.5.6,34.9.5,34.4,8.5,45.5l4.5,6.2,1.2,11.9c1.5,14.3,1.5,59.2,0,80.7l-1,14.9,2.7,3.8c1.5,2.1,9.4,10.6,17.6,18.9,11.4,11.5,15.8,16.5,18.1,21l3.1,5.9-.6,22.9c-.3,12.6-1,24.3-1.6,26.1-.5,1.8-1.6,12.7-2.3,24.3-1.3,19.7-2.4,34.8-3.6,47.6-.3,3-.9,10.9-1.4,17.4-1.4,19.6-3.6,40.5-4.5,44.6-1.6,7-1.2,8.3,3.9,13.6,6.1,6.2,16.2,13.9,17.1,12.9,1.5-1.7,2.8-16.9,3.3-39.2.3-13.1.7-26.1.8-28.8.2-4.4.9-26.6,2.7-83.7.3-8.5.7-19.2,1-23.7.5-8.3-.2-14.5-3.3-27.5-1.1-4.7-1.8-9.4-2.3-14.2-.4-4.2-1.4-8.3-2.8-12.3-1.2-3-2-5.6-1.8-5.9s0-1.2-.5-2.1c-1.4-2.7-2.6-17.5-2.7-33.8,0-16.2-1.3-23-6-32.2-2.4-4.6-14.4-22-18.8-27.1l-2.7-3.1.5-16.7c.5-17.6,1.7-26,4.1-30.1,2-3.4,3.9-2.8,6.2,2.1,2.2,4.6,4.4,7,14,15.5,7.1,6.2,10.2,10.3,10.2,13.5-.4,2.2-1.2,4.3-2.3,6.3-3.4,6.6-3.1,13.8,1.4,28.7,2,6.6,3.8,13.9,4.2,16.3.3,2.3,1,4.4,2,6.5,1.3,2,1.4,2.1,2.8.7,1.1-1.7,1.9-3.7,2.1-5.8.3-2.4,1-7.5,1.7-11.3s1.5-8.8,2-11.2c1.6-6.9,1.2-14.2-1-21-1.1-3.4-2.4-6.4-2.8-6.7-1.1-.7-1.1-6.2.2-10.6s5.8-8.9,17.3-17.2c4.8-3.5,9.9-8.1,11.3-10.1,1.4-2,2.9-3.7,3.3-3.7,2.9,0,2.6,12.5-.5,21-2.5,6.7-4.5,13.6-6.1,20.6-1,4.9-3.2,14.9-6.3,28.4-2.9,12.7-7.6,25.3-11.8,31.8-2.2,3.5-2.6,4.8-2.8,13.2s1.7,28.6,4.4,46.3c.6,5.8.7,11.6.5,17.4-.3,10.4-.1,12.4,1.4,15.6,3,6.3,3.6,11.4,3.8,33.9,0,12.1.5,24.8.9,28.3.9,7.2,1.2,43.9.3,45.3-.5.9-3.6,20.7-4.5,29.2-.5,5.5-1.2,17.6-1.9,39.4-.4,11.9.5,29,1.9,33.5,1.3,1,17.3-11.5,20.9-16.7l2.5-3.6v-26c0-16.1-.4-28-1.1-31.1-.6-2.8-1.2-7.4-1.5-10.1-.3-3.2-.8-6.4-1.5-9.6-1.2-5.3-1.5-24.3-.8-60.4.5-27.7.3-28.9-6-50.8-1-4-1.5-8-1.6-12.1v-7.1c0,0,5.4-4.8,5.4-4.8,15.7-13.9,19.8-22.1,15.1-31.2-3-6-3.8-14.9-2.7-31.6.5-8.3,1.3-18.2,1.9-22,.5-3.8,1.1-9.2,1.4-11.9,1.4-15.7,4.5-28.3,6.9-28.3s5.5-10.3,6.4-16.4c1.5-9.7.8-29.6-1.1-31.7-1-1.2-1.7-2.5-2.1-4-.8-2.3-1.7-4.4-2.8-6.6-1.6-3.1-2.3-6.5-2.2-10,0-6.6,1.7-10.5,5.9-13.7,1.6-1.3,7.3-6.3,12.5-11.1l9.6-8.9,3.1-9.9c3.1-9.9,9-23.5,12-27.7.9-1.2,3.6-6.2,6-10.9,5.3-10.5,11.2-18.1,22.9-29.5l8.8-8.6-1.1-3.4c-.6-1.9-1.2-8.6-1.3-14.9v-11.5c-.1,0-6.2-5.6-6.2-5.6l-6.1-5.6.8-10.1c.5-5.5,1.3-14.4,2-19.7,1.9-16.4.2-20.6-6.2-14.8-3.7,3.3-6.2,8.5-7.6,15.7-.7,3.6-2,7-4,10-2.1,3.2-3.4,6.8-3.9,10.6-3.9,23.4-7.9,33.5-17.6,45.5-5.5,6.9-12.7,12.4-20.8,16-3.5,1.7-9.3,4.7-12.8,6.7s-9.6,5.4-13.7,7.5c-13.7,7-15.9,9.7-18.8,23.3-3.3,15.1-3.7,16.2-6.4,16.6-1.9.2-2.7-.3-4.4-3.2-1.7-2.9-2-4.8-2-11.4,0-4.1.4-8.2,1.4-12.2,2-5.9,1.7-8.5-1-12.1-3.1-4-3.7-9.4-1.9-13.1s1.8-9.3,0-14.5c-.9-2.6-1.5-5.3-2-8.1-.5-3.4-.2-4.4,1.6-6.3.8-1,1.8-1.7,2.9-2.2,1.2-.5,2.3-1.3,3.3-2.3,1.3-1.4,6.2-5,10.7-8.2,3.4-2.2,6.5-4.7,9.6-7.4.9-1,2.1-1.8,3.4-2.3,1.6-.9,2.7-2.3,3.4-4,1.5-2.6,3.5-4.9,6-6.5,2.1-1.4,4-3.2,5.6-5.1.7-1.4,2-1.7,6.2-1.7s9.6-1.3,22.2-7.1c10.2-4.7,12.7-7.5,19.5-23.2.7-1.3,1.1-2.7,1.5-4.1,0-2,6.6-10.8,9.6-12.8,3.3-2.2,3.7-3.5,3.3-9.5-.3-1.9-.9-3.7-1.8-5.5-1.2-2.6-2.2-5.3-2.9-8.1-1.1-4.2-1.1-5.4.1-8.7,1.4-3.8,1.4-3.9-1.9-10.1-2.3-4.5-4.2-6.8-6.6-8.2l-3.4-2ZM414.7,749.8s-.3.1-.3,0h.3s0,0,0,0ZM544.6,228.5c-28.8,29.6-37.7,52.5-41.8,73.6,51.1,52.8,87.9,93,87.9,93,48.9,70.4,13.8,131.4-63.7,122h0c36.4,40.3,149.9,12.2,144-84.3-.6-10.6-4.5-117.4-126.5-204.2ZM238.8,272.3h0c-113.6,94.9-117.1,202-83.4,256.6,28.3,45.8,115.5,46.7,134.9,6.7-94,19.6-128.2-48.2-85.8-119.3,10.5-17.8,45.2-47.4,104.9-96.9-5.9-13.3-13.9-17.2-31.6-23-14.5-4.8-10.2-6.7-39-24.2ZM344.1,508c-.9.9-.6,30.2.3,38.7.5,4.5,1,9.1,1,10.1,0,2.3,3.3,22.3,4.7,28.8.6,2.8,1.4,8.6,1.8,12.9.2,3,.6,6,1.4,8.9,1.1,4.9,1.9,9.8,2.4,14.7.5,4.9,1.3,9.9,2.3,14.7,0,0,.1.2.1.2.3.3.8.3,1.2,0,1-1,2.6-20,3.7-43.8.4-10.1,1-20.4,1.3-22.9.3-2.5.7-9.7.9-16,.3-6.3.7-15.4,1.1-20.3l.6-8.8-7.2-7.2c-6.4-6.4-14.2-11.5-15.5-10.2ZM455.5,516.8c-1,.1-2.7,1.2-5.7,3.4-5.8,4.3-7.2,6.7-7.2,12.5s3.2,27.7,4.1,29.2c1.7,2.8,3.4,19.7,3.6,36,.1,10.1.7,20.6,1.2,23.3,1.9,9.5,3.1,27.9,3.1,47.1s.2,19.5.4,19.9h.2c.9,1.5,3.7-2.3,4.7-6.1,1.9-7.6,3-29.9,2.7-56.4-.2-21.9,0-29.2,1.4-38.9,2.2-15.9,2.2-16.3,2.3-24.2,0-7.5-.1-9.1-5.5-29.7-1.6-6-3.2-12.2-3.6-13.7-.4-1.7-.8-2.5-1.9-2.4Z"/>
</svg>